<svg width="462" height="513" viewBox="0 0 462 513" fill="none" xmlns="http://www.w3.org/2000/svg">
<path d="M461.623 231.522C461.623 104.049 358.286 0.710327 230.813 0.710327C102.962 0.710327 -0.00100391 103.673 7.34134e-09 231.523C7.34134e-09 356.776 99.7707 458.727 224.175 462.24C227.868 462.345 230.813 465.353 230.813 469.048V500.433C230.813 511.348 244.009 516.814 251.727 509.096L297.345 463.479C307.15 453.674 318.499 445.53 330.988 439.504C408.286 402.208 461.623 323.099 461.623 231.522V231.522Z" fill="#687DED"/>
<path d="M297.344 463.48C307.148 453.675 318.498 445.531 330.987 439.505C408.286 402.208 461.623 323.099 461.623 231.522C461.623 225.903 461.411 220.334 461.017 214.816L397.543 151.342C392.004 142.517 379.858 141.27 369.925 147.501L327.669 175.568L294.759 142.934C290.266 136.991 283.801 135.169 276.317 133.446C216.217 119.612 155.422 119.612 95.3224 133.446C84.1387 136.02 77.7015 141.875 74.2711 152.826C59.0878 201.304 59.0898 250.288 74.2711 298.762C76.3252 305.319 77.8662 310.931 83.1679 314.941L264.524 496.297L297.344 463.48Z" fill="url(#paint0_linear_306_3)"/>
<path d="M268.472 209.085L370.264 145.242C383.586 136.886 400.896 146.463 400.896 162.188V289.875C400.896 305.6 383.586 315.177 370.264 306.821L268.472 242.978C255.972 235.138 255.972 216.925 268.472 209.085V209.085Z" fill="url(#paint1_linear_306_3)"/>
<path d="M400.895 289.875V277.383L307.881 184.369L268.472 209.086C255.972 216.926 255.972 235.139 268.472 242.979L370.264 306.822C383.585 315.177 400.895 305.6 400.895 289.875V289.875Z" fill="url(#paint2_linear_306_3)"/>
<path d="M300.203 153.063C296.772 142.112 287.839 133.762 276.656 131.188C216.555 117.354 155.76 117.354 95.6606 131.188C84.477 133.762 75.5441 142.112 72.1137 153.063C56.9303 201.542 56.9324 250.526 72.1137 299C75.5431 309.95 84.477 318.301 95.6606 320.875C155.76 334.709 216.555 334.709 276.656 320.875C287.839 318.301 296.772 309.951 300.203 299C315.384 250.526 315.386 201.542 300.203 153.063Z" fill="url(#paint3_linear_306_3)"/>
<defs>
<linearGradient id="paint0_linear_306_3" x1="351.036" y1="410.248" x2="244.621" y2="216.491" gradientUnits="userSpaceOnUse">
<stop stop-color="#687DED" stop-opacity="0"/>
<stop offset="1" stop-color="#091C85"/>
</linearGradient>
<linearGradient id="paint1_linear_306_3" x1="310.953" y1="175.066" x2="377.169" y2="241.283" gradientUnits="userSpaceOnUse">
<stop stop-color="#EBEFF0"/>
<stop offset="1" stop-color="#E3E5E4"/>
</linearGradient>
<linearGradient id="paint2_linear_306_3" x1="370.706" y1="254.313" x2="204.444" y2="211.084" gradientUnits="userSpaceOnUse">
<stop stop-color="#CBD0E4" stop-opacity="0"/>
<stop offset="1" stop-color="#6A7D83"/>
</linearGradient>
<linearGradient id="paint3_linear_306_3" x1="122.556" y1="162.428" x2="253.696" y2="293.568" gradientUnits="userSpaceOnUse">
<stop stop-color="#EBEFF0"/>
<stop offset="1" stop-color="#E3E5E4"/>
</linearGradient>
</defs>
</svg>
